<svg width="32" height="32" viewBox="0 0 32 32" fill="none" xmlns="http://www.w3.org/2000/svg">
<circle cx="16" cy="16" r="16" fill="white" fill-opacity="0.1"/>
<path d="M15.0664 18.9961C15.0664 18.2148 15.1478 17.5801 15.3105 17.0918C15.4733 16.6035 15.8704 15.9818 16.502 15.2266L17.1855 14.3477C17.6413 13.7096 17.8691 13.0456 17.8691 12.3555C17.8691 11.6719 17.7259 11.138 17.4395 10.7539C17.1595 10.3633 16.7559 10.168 16.2285 10.168C15.7337 10.168 15.3203 10.3438 14.9883 10.6953C14.6628 11.0469 14.5 11.5189 14.5 12.1113H12.7812C12.7943 11.0371 13.1198 10.181 13.7578 9.54297C14.3958 8.90495 15.2194 8.58594 16.2285 8.58594C17.2767 8.58594 18.1003 8.91471 18.6992 9.57227C19.2982 10.2298 19.5977 11.138 19.5977 12.2969C19.5977 13.4036 19.1452 14.5137 18.2402 15.627L17.3418 16.7109C16.9707 17.2383 16.7852 18 16.7852 18.9961H15.0664ZM16.0039 21.0566C16.3294 21.0566 16.5736 21.1576 16.7363 21.3594C16.9056 21.5547 16.9902 21.7988 16.9902 22.0918C16.9902 22.3848 16.9056 22.6289 16.7363 22.8242C16.5736 23.013 16.3294 23.1074 16.0039 23.1074C15.6719 23.1074 15.4245 23.013 15.2617 22.8242C15.1055 22.6289 15.0273 22.3848 15.0273 22.0918C15.0273 21.7988 15.1055 21.5547 15.2617 21.3594C15.4245 21.1576 15.6719 21.0566 16.0039 21.0566Z" fill="#E7E7E7"/>
</svg>
