<svg aria-hidden="true" style="position: absolute; width: 0; height: 0; overflow: hidden;" version="1.1" xmlns="http://www.w3.org/2000/svg" xmlns:xlink="http://www.w3.org/1999/xlink">
<defs>
<symbol id="icon-question" viewBox="0 0 32 32">
<path fill="#fff" style="fill: var(--color1, #fff)" opacity="0.1" d="M32 16c0 8.837-7.163 16-16 16s-16-7.163-16-16c0-8.837 7.163-16 16-16s16 7.163 16 16z"></path>
<path fill="#e7e7e7" style="fill: var(--color2, #e7e7e7)" d="M15.066 18.996c0-0.781 0.081-1.416 0.244-1.904s0.56-1.11 1.191-1.865l0.683-0.879c0.456-0.638 0.684-1.302 0.684-1.992 0-0.684-0.143-1.217-0.43-1.602-0.28-0.391-0.684-0.586-1.211-0.586-0.495 0-0.908 0.176-1.24 0.527-0.325 0.352-0.488 0.824-0.488 1.416h-1.719c0.013-1.074 0.339-1.93 0.977-2.568s1.462-0.957 2.471-0.957c1.048 0 1.872 0.329 2.471 0.986s0.898 1.566 0.898 2.725c0 1.107-0.453 2.217-1.358 3.33l-0.898 1.084c-0.371 0.527-0.557 1.289-0.557 2.285h-1.719zM16.004 21.057c0.326 0 0.57 0.101 0.732 0.303 0.169 0.195 0.254 0.439 0.254 0.732s-0.085 0.537-0.254 0.732c-0.163 0.189-0.407 0.283-0.732 0.283-0.332 0-0.579-0.094-0.742-0.283-0.156-0.195-0.234-0.439-0.234-0.732s0.078-0.537 0.234-0.732c0.163-0.202 0.41-0.303 0.742-0.303z"></path>
</symbol>
</defs>
</svg>
